#N canvas 428 93 1222 939 12;
#X msg 143 89 1 2 3;
#X obj 153 227 oscformat cat horse pig;
#X msg 175 162 set dog ferret;
#X msg 173 189 set mouse banana;
#X msg 148 119 4 5 weasel 6 7 rat;
#X text 330 226 creation arguments are OSC address;
#X msg 28 324 disconnect;
#X obj 150 375 netsend -u -b;
#X obj 151 274 list prepend send;
#X obj 151 299 list trim;
#X text 31 299 don't send;
#X text 292 169 set message to change OSC address;
#X msg 108 47 connect localhost 12000;
#X text 443 254, f 23;
#X text 209 96;
#X text 199 88 2 Send data;
#X text 105 11 1 Connect to port;
#X connect 0 0 1 0;
#X connect 1 0 8 0;
#X connect 2 0 1 0;
#X connect 3 0 1 0;
#X connect 4 0 1 0;
#X connect 6 0 7 0;
#X connect 8 0 9 0;
#X connect 9 0 7 0;
#X connect 12 0 7 0;
